<svg width="32" height="44" viewBox="0 0 32 44" fill="none" xmlns="http://www.w3.org/2000/svg">
<path d="M13.7734 8.96812C16.242 8.96812 18.2504 6.95978 18.2504 4.49114C18.2504 2.02251 16.242 0.0141602 13.7734 0.0141602C11.3048 0.0141602 9.29688 2.02251 9.29688 4.49114C9.29688 6.95978 11.3048 8.96812 13.7734 8.96812ZM13.7734 1.90254C15.2007 1.90254 16.3619 3.06372 16.3619 4.49103C16.3619 5.91833 15.2003 7.07951 13.7734 7.07951C12.3466 7.07951 11.1857 5.91833 11.1857 4.49103C11.1857 3.06327 12.3469 1.90254 13.7734 1.90254Z" fill="#222222"/>
<path d="M1.11835 22.4901C6.39516 21.5011 9.65958 17.6929 11.3034 15.1382C12.1616 19.3916 13.5626 25.4506 14.762 26.5161C14.9425 26.6769 15.1696 26.7568 15.3949 26.7568C15.6549 26.7568 15.9135 26.651 16.0993 26.4419C16.4463 26.0524 16.4155 25.459 16.0255 25.113C15.2802 24.3255 13.6992 17.8032 12.66 12.2116C12.5841 11.8009 12.2472 11.4887 11.8313 11.4448C11.4106 11.403 11.0206 11.6349 10.8598 12.021C10.8295 12.0939 7.74248 19.3264 0.770552 20.6342C0.258026 20.7299 -0.0801421 21.224 0.0164806 21.7361C0.112222 22.2486 0.605426 22.5854 1.11839 22.4901L1.11835 22.4901Z" fill="#222222"/>
<path d="M17.9363 13.3525C18.837 15.4597 19.8243 17.9613 20.3132 20.5397C20.7532 22.863 21.0497 25.4305 19.9056 26.8605C19.3215 27.5904 18.3447 27.9044 17.3096 28.2382L16.9569 28.3528C16.5906 28.4732 16.2222 28.5891 15.8537 28.7046C14.8361 29.0243 13.7834 29.3555 12.7623 29.7876C10.9512 30.5553 8.56898 32.0051 7.51191 34.558C6.85314 36.1496 6.83206 37.895 6.81185 39.5831C6.80614 40.0671 6.80043 40.5445 6.77803 41.0065L6.75959 41.375C6.73192 41.9169 6.70293 42.4782 6.70337 43.0416C6.70381 43.5629 7.1263 43.9854 7.64761 43.9854H7.64805C8.16979 43.985 8.59229 43.5616 8.59185 43.0403C8.59141 42.526 8.61776 42.014 8.64543 41.472L8.66387 41.0987C8.68759 40.6147 8.69417 40.1141 8.70032 39.606C8.71877 38.0969 8.73765 36.5361 9.25676 35.2804C10.1119 33.2154 12.2818 32.0419 13.4984 31.5267C14.4361 31.1293 15.3996 30.8267 16.4203 30.5061C16.7962 30.3875 17.1713 30.2698 17.5459 30.1464L17.8872 30.0357C19.084 29.6505 20.4401 29.214 21.3792 28.041C23.0015 26.0137 22.6887 22.9337 22.1679 20.1879C21.7845 18.1637 21.1253 16.2121 20.4287 14.4461C23.0863 15.339 27.9357 17.3895 30.2602 21.0219C30.5422 21.462 31.1272 21.5894 31.5646 21.3083C32.0043 21.0277 32.1321 20.4431 31.851 20.0039C28.1597 14.2365 19.3869 12.1478 19.0159 12.0621C18.6663 11.9813 18.3071 12.1038 18.0783 12.3761C17.8521 12.6471 17.7959 13.0248 17.9364 13.3524L17.9363 13.3525Z" fill="#222222"/>
<path d="M18.789 31.4328C18.5729 30.9576 18.0151 30.7463 17.5391 30.962C17.0643 31.1772 16.8535 31.7363 17.0687 32.2119C17.211 32.5268 20.5997 39.9546 24.5932 43.727C24.7759 43.8996 25.0087 43.9852 25.2419 43.9852C25.4927 43.9852 25.743 43.8855 25.9288 43.6892C26.2863 43.3102 26.2696 42.7125 25.8906 42.3546C22.1689 38.8389 18.8224 31.5064 18.789 31.433L18.789 31.4328Z" fill="#222222"/>
</svg>
