<svg width="32" height="48" viewBox="0 0 32 48" fill="none" xmlns="http://www.w3.org/2000/svg">
<path d="M31.8032 45.9944L25.2728 38.9295H26.5697C27.4808 38.9295 28.3221 38.567 28.9494 37.9069C29.5768 37.2468 29.8929 36.387 29.8511 35.476L28.5542 9.88904C28.466 8.14149 27.0249 6.77043 25.2728 6.77043H18.2964L19.872 4.17215C19.8999 4.12579 19.9232 4.07002 19.9417 4.01879L20.4994 2.3037C21.034 2.39189 21.5453 2.57799 22.0054 2.85682L24.0829 4.11184C24.2039 4.18609 24.3339 4.21884 24.4687 4.21884C24.7197 4.21884 24.9661 4.09337 25.1055 3.8609C25.3192 3.50751 25.2031 3.05231 24.8546 2.84284L22.777 1.58781C21.8754 1.04896 20.834 0.760742 19.7605 0.760742H12.24C11.1662 0.760742 10.1252 1.04897 9.2281 1.59264L7.15055 2.84767C6.79716 3.06132 6.68562 3.51685 6.89961 3.86573C7.11327 4.21913 7.56879 4.33066 7.91768 4.11667L9.99523 2.86165C10.4553 2.58282 10.9666 2.39672 11.5012 2.30853L12.0589 4.02362C12.0774 4.07939 12.1007 4.13062 12.1286 4.17698L13.7043 6.77526H6.84389C5.10091 6.77526 3.66013 8.13695 3.56252 9.87992L2.54936 28.2343L2.1496 35.4666C2.09837 36.3777 2.41902 37.242 3.04217 37.9066C3.66953 38.5667 4.51574 38.9337 5.42648 38.9337H6.72334L0.197547 45.9941C-0.0812794 46.2963 -0.0627958 46.7657 0.239371 47.0445C0.383325 47.1746 0.564885 47.2397 0.741258 47.2397C0.94097 47.2397 1.14101 47.1606 1.28497 47.0027L4.75242 43.2519H27.2393L30.7068 47.0027C30.8507 47.1606 31.0508 47.2397 31.2505 47.2397C31.4317 47.2397 31.613 47.1746 31.7524 47.0445C32.0636 46.7657 32.0824 46.2914 31.8033 45.9941L31.8032 45.9944ZM4.83185 13.9054C5.83597 13.6868 6.88151 13.5056 7.95991 13.3477V28.4212C6.61218 28.226 5.31042 27.9841 4.06967 27.6913L4.83185 13.9054ZM9.44252 13.1571C11.5573 12.9155 13.7649 12.7897 16.0008 12.7897C18.2366 12.7897 20.4441 12.9152 22.559 13.1571V28.6165C20.4487 28.858 18.2456 28.9789 16.0008 28.9789C13.7559 28.9789 11.5525 28.8535 9.44252 28.6165V13.1571ZM24.0412 13.3477C25.152 13.5056 26.2303 13.7011 27.2668 13.9242L27.9639 27.6871C26.7137 27.9798 25.4029 28.2262 24.0408 28.4214L24.0412 13.3477ZM13.4439 3.47996L13.0441 2.24826H18.9611L18.5568 3.47996L16.5583 6.77527H15.4427L13.4439 3.47996ZM6.84383 8.26245H25.2679C26.2253 8.26245 27.0155 9.01073 27.0621 9.96816L27.1831 12.3852C25.9838 12.1342 24.7336 11.9297 23.4416 11.7624C23.4371 11.7624 23.4277 11.7624 23.4231 11.7578C21.0388 11.4557 18.5337 11.2978 15.9912 11.2978C12.11 11.2978 8.30339 11.6651 4.90583 12.3621L5.0407 9.95907C5.10036 9.01072 5.88596 8.26248 6.84336 8.26248L6.84383 8.26245ZM4.12495 36.8847C3.78096 36.5222 3.60912 36.0482 3.637 35.5509L3.98553 29.2018C7.61093 30.0292 11.743 30.4658 16.0005 30.4658C20.2671 30.4658 24.4083 30.0288 28.0436 29.1969L28.3643 35.5599C28.3876 36.0573 28.2155 36.5312 27.8715 36.8892C27.5275 37.2517 27.0674 37.4469 26.57 37.4469L5.43103 37.4472C4.92914 37.4472 4.46873 37.2475 4.12512 36.8847L4.12495 36.8847ZM6.12796 41.7651L8.66109 39.0229C8.68897 38.995 8.71231 38.9626 8.73079 38.9298H23.2598C23.2831 38.9622 23.3016 38.995 23.3295 39.0229L25.8626 41.7651H6.12796Z" fill="#222222"/>
<path d="M6.92364 30.917C5.51523 30.917 4.36719 32.065 4.36719 33.4734C4.36719 34.8819 5.51523 36.0299 6.92364 36.0299C8.33205 36.0299 9.48009 34.8819 9.48009 33.4734C9.48009 32.065 8.33205 30.917 6.92364 30.917ZM6.92364 34.5469C6.33324 34.5469 5.8547 34.068 5.8547 33.4779C5.8547 32.8875 6.33356 32.409 6.92364 32.409C7.51404 32.409 7.99258 32.8878 7.99258 33.4779C7.99258 34.0683 7.51372 34.5469 6.92364 34.5469Z" fill="#222222"/>
<path d="M27.6442 33.4734C27.6442 32.065 26.4961 30.917 25.0877 30.917C23.6793 30.917 22.5312 32.065 22.5312 33.4734C22.5312 34.8819 23.6793 36.0299 25.0877 36.0299C26.4961 36.0299 27.6442 34.8864 27.6442 33.4734ZM25.0877 34.547C24.4973 34.547 24.0188 34.0681 24.0188 33.478C24.0188 32.8876 24.4976 32.4091 25.0877 32.4091C25.6781 32.4091 26.1566 32.8879 26.1566 33.478C26.1566 34.0684 25.6781 34.547 25.0877 34.547Z" fill="#222222"/>
</svg>
