<svg width="16" height="14" viewBox="0 0 16 14" fill="none" xmlns="http://www.w3.org/2000/svg">
<path d="M8.4331 13.3319L14.2954 7.51814C15.7358 6.08965 15.9483 3.73956 14.5852 2.23833C14.2437 1.86121 13.8284 1.55703 13.3645 1.34436C12.9006 1.13168 12.3979 1.01497 11.887 1.00135C11.3761 0.987724 10.8678 1.07747 10.3931 1.26511C9.91831 1.45275 9.48709 1.73435 9.12571 2.09273L8.02386 3.18545L7.07253 2.24199C5.63212 0.813499 3.26242 0.602747 1.74866 1.95459C1.36839 2.2932 1.06168 2.7051 0.847228 3.16516C0.632781 3.62521 0.515098 4.12377 0.50136 4.63042C0.487621 5.13707 0.578116 5.64119 0.767322 6.11201C0.956529 6.58283 1.24048 7.01048 1.60185 7.36887L7.61462 13.3319C7.72315 13.4395 7.87036 13.5 8.02386 13.5C8.17736 13.5 8.32457 13.4395 8.4331 13.3319V13.3319Z" stroke="#222222" stroke-linecap="round"/>
</svg>
