<svg width="24" height="24" viewBox="0 0 24 24" fill="none" xmlns="http://www.w3.org/2000/svg">
<path fill-rule="evenodd" clip-rule="evenodd" d="M19.1244 15.4811C19.1667 14.5433 19.1767 14.2622 19.1767 11.8889C19.1767 9.51556 19.1667 9.23333 19.1244 8.29667C19.0844 7.43 18.94 6.96 18.8178 6.64667C18.6754 6.26057 18.4484 5.91128 18.1533 5.62444C17.8665 5.32939 17.5172 5.10234 17.1311 4.96C16.8178 4.83778 16.3478 4.69333 15.4811 4.65333C14.5433 4.61111 14.2622 4.60111 11.8889 4.60111C9.51556 4.60111 9.23333 4.61111 8.29667 4.65333C7.43 4.69333 6.96 4.83778 6.64667 4.96C6.23111 5.12111 5.93556 5.31333 5.62444 5.62444C5.32942 5.9113 5.10238 6.26059 4.96 6.64667C4.83778 6.96 4.69333 7.43 4.65333 8.29667C4.61111 9.23444 4.60111 9.51556 4.60111 11.8889C4.60111 14.2622 4.61111 14.5444 4.65333 15.4811C4.69333 16.3478 4.83778 16.8178 4.96 17.1311C5.12111 17.5467 5.31333 17.8422 5.62444 18.1533C5.93556 18.4644 6.23111 18.6567 6.64667 18.8178C6.96 18.94 7.43 19.0844 8.29667 19.1244C9.23444 19.1667 9.51556 19.1767 11.8889 19.1767C14.2622 19.1767 14.5444 19.1667 15.4811 19.1244C16.3478 19.0844 16.8178 18.94 17.1311 18.8178C17.5467 18.6567 17.8422 18.4644 18.1533 18.1533C18.4644 17.8422 18.6567 17.5467 18.8178 17.1311C18.94 16.8178 19.0844 16.3478 19.1244 15.4811ZM20.7244 8.22444C20.7678 9.17222 20.7778 9.47444 20.7778 11.8889C20.7778 14.3033 20.7667 14.6056 20.7244 15.5533C20.6811 16.5 20.5311 17.1456 20.3111 17.7111C20.0878 18.3043 19.7378 18.8416 19.2856 19.2856C18.7922 19.78 18.2967 20.0844 17.7111 20.3111C17.1456 20.5311 16.5 20.6811 15.5533 20.7244C14.6056 20.7678 14.3033 20.7778 11.8889 20.7778C9.47444 20.7778 9.17222 20.7667 8.22444 20.7244C7.27778 20.6811 6.63222 20.5311 6.06667 20.3111C5.4735 20.0878 4.93619 19.7379 4.49222 19.2856C4.03995 18.8416 3.68996 18.3043 3.46667 17.7111C3.24667 17.1456 3.09667 16.5 3.05333 15.5533C3.01111 14.6056 3 14.3033 3 11.8889C3 9.47444 3.01111 9.17222 3.05333 8.22444C3.09667 7.27778 3.24667 6.63222 3.46667 6.06667C3.69333 5.48222 3.99778 4.98556 4.49222 4.49222C4.98556 3.99778 5.48111 3.69333 6.06667 3.46667C6.63222 3.24667 7.27778 3.09667 8.22444 3.05333C9.17222 3.01111 9.47444 3 11.8889 3C14.3033 3 14.6056 3.01111 15.5533 3.05333C16.5 3.09667 17.1456 3.24667 17.7111 3.46667C18.2956 3.69333 18.7922 3.99778 19.2856 4.49222C19.78 4.98556 20.0844 5.48111 20.3111 6.06667C20.5311 6.63222 20.6811 7.27778 20.7244 8.22444ZM11.8911 14.9711C13.54 14.9711 14.8767 13.6578 14.8767 12.0378C14.8767 10.4156 13.54 9.10222 11.8922 9.10222C10.2433 9.10222 8.90667 10.4156 8.90667 12.0367C8.90667 13.6578 10.2433 14.9711 11.8922 14.9711H11.8911ZM11.8911 7.51556C14.4322 7.51556 16.4911 9.54 16.4911 12.0378C16.4911 14.5333 14.4322 16.5578 11.8911 16.5578C9.35222 16.5578 7.29222 14.5333 7.29222 12.0367C7.29222 9.54 9.35222 7.51556 11.8922 7.51556H11.8911ZM16.6444 6.00889C17.2367 6.00889 17.7178 6.48111 17.7178 7.06444C17.7178 7.64556 17.2367 8.11889 16.6444 8.11889C16.5047 8.12006 16.366 8.09369 16.2364 8.04127C16.1068 7.98886 15.9888 7.91143 15.8892 7.81342C15.7895 7.7154 15.7101 7.59871 15.6555 7.47001C15.601 7.34131 15.5723 7.20312 15.5711 7.06333C15.5711 6.48111 16.0511 6.00778 16.6444 6.00778V6.00889Z" fill="#222222"/>
</svg>
