<svg width="171" height="14" viewBox="0 0 171 14" fill="none" xmlns="http://www.w3.org/2000/svg">
<path fill-rule="evenodd" clip-rule="evenodd" d="M50.316 2.46665C49.6347 2.46665 49.1109 2.61965 48.7444 2.92745C48.3771 3.23435 48.1943 3.63395 48.1943 4.12715C48.1943 4.87235 48.7482 5.36015 49.8606 5.59145L52.5643 6.14945C53.3074 6.30155 53.9166 6.63275 54.388 7.14665C54.88 7.69025 55.1255 8.33465 55.1255 9.07895C55.1255 10.2166 54.7122 11.1526 53.8847 11.887C53.0563 12.6214 51.9664 12.9886 50.6141 12.9886C49.5457 12.9886 48.6741 12.832 47.9975 12.5206C47.3209 12.2092 46.5637 11.6251 45.7258 10.7692L47.3134 9.48665C48.3817 10.5937 49.4829 11.1472 50.6141 11.1472C52.2803 11.1472 53.1144 10.6135 53.1144 9.54695C53.1144 8.72165 52.6055 8.20325 51.5887 7.99265L49.0743 7.47965C48.1831 7.28705 47.4708 6.88025 46.9366 6.25565C46.4118 5.66165 46.1494 4.97765 46.1494 4.20365C46.1494 3.13625 46.5487 2.28485 47.3443 1.65215C48.1418 1.01765 49.2158 0.699951 50.5672 0.699951C51.152 0.723015 51.7323 0.809054 52.2972 0.956451C53.5436 1.27775 54.4133 1.84745 54.9062 2.66195L53.224 3.85445C52.658 2.99945 51.688 2.53595 50.316 2.46575V2.46665ZM33.3928 10.3129C32.8474 9.71526 32.5756 8.98716 32.5756 8.13216H32.5747V0.88626H30.4998V8.47956C30.4998 9.80706 30.9637 10.9006 31.8906 11.7556C32.8184 12.6106 33.9898 13.0381 35.4049 13.0381C36.8088 13.0381 37.9615 12.5809 38.863 11.6656C39.7215 10.7998 40.1516 9.73776 40.1516 8.47956V0.88626H38.0927V8.13216C38.0927 8.89716 37.8931 9.57126 37.4948 10.1554C37.0028 10.8601 36.3046 11.212 35.4049 11.212C34.6074 11.212 33.9364 10.9132 33.3928 10.3129ZM2.13766 5.56086H7.7503V0.911457H9.80924V12.7474H7.7503V7.32756H2.13766V12.7474H0V0.912357H2.13766V5.55996V5.56086ZM162.937 5.61127H168.549V0.960967H170.609V12.796H168.549V7.37617H162.937V12.7951H160.799V0.960967H162.937V5.61127ZM19.9662 3.31626L21.9155 8.88726H18.1425L19.9662 3.31626ZM14.5747 12.7969L18.7085 0.916864H21.2707L25.4204 12.7969H23.3306L22.5433 10.5775H17.4977L16.7601 12.7969H14.5747ZM68.3685 5.78765H63.0876V2.63315H68.809V0.867353H61.0118V12.7474H69.1707V10.9204H63.1963V7.55435H68.3685V5.78765ZM79.5666 6.33124C80.9818 6.33124 81.6884 5.74264 81.6884 4.56544C81.6884 3.98044 81.4963 3.52864 81.1148 3.20644C80.7325 2.88514 80.232 2.72404 79.6135 2.72404H77.1141V6.33124H79.5666ZM79.3305 8.11324L81.8458 12.7482V12.7464H84.0303L81.4691 7.85494C82.3697 7.63354 82.9985 7.04584 83.3546 6.08914C83.5094 5.64542 83.5993 5.18321 83.6217 4.71574C83.6217 3.63844 83.2965 2.76364 82.6471 2.08864C81.903 1.33354 80.8505 0.956443 79.487 0.956443H75.0542V12.7482H77.1141V8.11324H79.3305ZM108.945 12.7969L105.94 0.88626H108.142L110.247 8.72076L112.118 0.88626H114.555L116.551 8.72076L118.516 0.88626H120.67L117.824 12.7969H115.481L113.345 4.02546L111.302 12.7969H108.945ZM127.923 12.7968H125.769V0.900642H127.923V12.7968ZM138.767 6.33124C140.182 6.33124 140.89 5.74264 140.89 4.56544C140.89 3.98044 140.697 3.52864 140.316 3.20644C139.934 2.88514 139.433 2.72404 138.816 2.72404H136.316V6.33124H138.767ZM138.532 8.11324L141.047 12.7482V12.7464H143.232L140.669 7.85494C141.571 7.63354 142.2 7.04584 142.557 6.08914C142.712 5.64542 142.801 5.18321 142.824 4.71574C142.824 3.63844 142.499 2.76364 141.849 2.08864C141.104 1.33354 140.052 0.956443 138.689 0.956443H134.255V12.7482H136.316V8.11324H138.532ZM155.992 2.78346H152.612V12.7474H150.552V2.78346H147.156V0.972665H155.992V2.78346ZM94.3766 4.00025C94.3766 3.32165 94.6849 2.98145 95.3015 2.98145C95.8188 2.98145 96.0775 3.25595 96.0775 3.80495C96.0775 4.05785 95.9229 4.31885 95.6136 4.58885C95.3428 4.83185 95.0701 4.98935 94.7983 5.05865C94.5181 4.72835 94.3766 4.37555 94.3766 4.00025ZM93.1798 8.40217C93.1798 8.84677 93.37 9.26257 93.7515 9.64957C94.1319 10.0375 94.5537 10.231 95.0166 10.231C95.1797 10.222 95.3334 10.2004 95.4786 10.1662C95.8235 10.0789 96.0953 9.92587 96.294 9.70897L94.2135 6.90097C93.5696 7.18897 93.2257 7.68937 93.1798 8.40217ZM99.7362 7.18806H98.0212C97.9846 7.55346 97.8956 7.88826 97.7503 8.19426C97.6866 8.32386 97.6144 8.44176 97.532 8.54616L95.8329 6.33936C96.5939 5.99916 97.129 5.48976 97.4373 4.81116C97.5638 4.52316 97.6416 4.21446 97.6669 3.88416C97.6669 3.22176 97.4307 2.65836 96.9547 2.19216C96.4786 1.72596 95.8685 1.49286 95.1253 1.49286C94.4628 1.49286 93.8827 1.75476 93.3832 2.27766C92.9211 2.77536 92.6897 3.31896 92.6897 3.91206C92.7168 4.72386 92.9389 5.32506 93.3569 5.71746C92.6044 6.05676 92.0786 6.62916 91.7797 7.43016C91.6569 7.78133 91.5835 8.14665 91.5613 8.51646C91.5613 9.36156 91.9081 10.1221 92.6016 10.7989C93.2951 11.4739 94.1141 11.8114 95.0569 11.8114C95.5283 11.8114 95.8732 11.7808 96.0906 11.7178C96.3718 11.6386 96.7935 11.4343 97.3558 11.1058C97.6735 11.3848 97.9312 11.5684 98.1299 11.6548C98.3754 11.7601 98.7072 11.8114 99.1233 11.8114C99.5319 11.8024 99.8674 11.7502 100.13 11.6548L99.9395 10.1527C99.4953 10.204 99.2779 10.231 99.2863 10.231C98.978 10.2139 98.7484 10.1221 98.5928 9.95736C99.336 8.98986 99.7174 8.06826 99.7362 7.18806Z" fill="#222222"/>
</svg>
