<svg width="24" height="24" viewBox="0 0 24 24" fill="none" xmlns="http://www.w3.org/2000/svg">
<path d="M15.5 19L17.25 17.25L19 15.5M15.5 19H5V5H19V15.5M15.5 19V15.5H19" stroke="#222222" stroke-linecap="round" stroke-linejoin="round"/>
<path fill-rule="evenodd" clip-rule="evenodd" d="M15.0511 7.00301C15.7063 7.00033 16.492 6.99712 16.9534 7.00478V7.82641C16.6802 7.81601 16.0674 7.82033 15.6016 7.82362C15.4173 7.82492 15.256 7.82606 15.1479 7.82606V8.79562C15.1945 8.79542 15.2953 8.79566 15.4192 8.79595C15.7276 8.79666 16.1791 8.79771 16.2952 8.79329V9.61756C16.1707 9.61962 15.669 9.61867 15.3611 9.61808C15.2622 9.61789 15.1833 9.61774 15.1433 9.61774V11H14.3205V7.00526C14.517 7.00519 14.7722 7.00415 15.0511 7.00301ZM8.36161 7.00519H7.06689V10.9999H7.88967V9.61766H8.36161C8.70814 9.61766 9.04047 9.48001 9.2855 9.23498C9.53053 8.98995 9.66818 8.65762 9.66818 8.31109C9.66818 7.96457 9.53053 7.63224 9.2855 7.38721C9.04047 7.14218 8.70814 7.00453 8.36161 7.00453V7.00519ZM8.36161 8.79554H7.89428V7.82599H8.36491C8.49322 7.82599 8.61627 7.87696 8.707 7.96769C8.79773 8.05841 8.8487 8.18147 8.8487 8.30978C8.8487 8.43809 8.79773 8.56114 8.707 8.65187C8.61627 8.7426 8.49322 8.79357 8.36491 8.79357L8.36161 8.79554ZM11.787 7.02312H10.5028V7.02838V7.57668L10.51 10.925H10.9214C10.9214 10.925 11.5691 10.925 11.8186 10.9185C12.0541 10.9008 12.2838 10.8361 12.4938 10.728C12.7038 10.6199 12.89 10.4707 13.0413 10.2893C13.1926 10.1079 13.3058 9.89792 13.3744 9.67187C13.443 9.44583 13.4654 9.20831 13.4404 8.97342C13.4404 7.80706 12.7763 7.02312 11.787 7.02312ZM11.8041 10.0944C11.743 10.0944 11.6579 10.0954 11.5647 10.0966C11.4933 10.0975 11.4171 10.0984 11.3434 10.099L11.3308 7.84589H11.7916C12.563 7.84589 12.6223 8.70882 12.6223 8.97342C12.6177 9.52436 12.3669 10.0845 11.8041 10.0944Z" fill="#222222"/>
</svg>
