<svg width="18" height="15" viewBox="0 0 18 15" fill="none" xmlns="http://www.w3.org/2000/svg">
<path fill-rule="evenodd" clip-rule="evenodd" d="M17.7778 1.71638C17.1118 2.01133 16.4055 2.20495 15.6822 2.29082C16.4443 1.8353 17.0145 1.11811 17.2867 0.273044C16.5704 0.697545 15.7869 0.996656 14.97 1.15749C14.4213 0.569988 13.6938 0.180282 12.9006 0.0489762C12.1075 -0.0823296 11.2932 0.052125 10.5844 0.43143C9.87563 0.810736 9.31202 1.41363 8.98128 2.14635C8.65053 2.87908 8.57117 3.70056 8.75555 4.48304C7.30539 4.41051 5.88668 4.03383 4.59153 3.37745C3.29638 2.72107 2.15374 1.79966 1.23778 0.673045C0.769968 1.47562 0.626293 2.42653 0.836114 3.33149C1.04593 4.23644 1.59341 5.02711 2.36667 5.54193C1.78745 5.52418 1.22091 5.36797 0.714444 5.08638V5.13193C0.714656 5.97396 1.00608 6.78999 1.53929 7.44167C2.0725 8.09336 2.81469 8.54057 3.64 8.70749C3.103 8.85328 2.5398 8.87457 1.99333 8.76971C2.22623 9.4944 2.67981 10.1282 3.29062 10.5824C3.90144 11.0366 4.63894 11.2886 5.4 11.303C4.10779 12.3166 2.51226 12.866 0.87 12.863C0.575556 12.863 0.285556 12.8464 0 12.813C1.66791 13.8842 3.60885 14.4528 5.59111 14.4508C12.3 14.4508 15.9689 8.89416 15.9689 4.07527C15.9688 3.91779 15.9651 3.76035 15.9578 3.60304C16.6718 3.08786 17.2882 2.44932 17.7778 1.71749" fill="#222222"/>
</svg>
