<svg width="24" height="24" viewBox="0 0 24 24" fill="none" xmlns="http://www.w3.org/2000/svg">
<path fill-rule="evenodd" clip-rule="evenodd" d="M22 15.25C22 16.7917 21.112 18.1556 19.7396 19.0716L19.5846 19.1712L20.75 21.5L17.3815 20.056C16.8574 20.1699 16.3177 20.25 15.75 20.25C12.2988 20.25 9.5 18.0111 9.5 15.25C9.5 12.4889 12.2988 10.25 15.75 10.25C19.2012 10.25 22 12.4889 22 15.25ZM16.8633 9.07617C16.4987 9.03125 16.1289 9 15.75 9C11.6139 9 8.25 11.804 8.25 15.25C8.2513 15.6452 8.29753 16.0391 8.38737 16.4238C7.83789 16.3561 7.31901 16.2227 6.81771 16.0566L6.56901 15.9714L3.875 17.125L4.86393 15.1478C3.1224 14.0052 2 12.2402 2 10.25C2 6.79883 5.35742 4 9.5 4C13.1608 4 16.2044 6.1862 16.8633 9.07617ZM12.9368 14C12.9368 14.5182 13.3561 14.9382 13.8743 14.9382C14.3926 14.9382 14.8125 14.5189 14.8125 14.0007C14.8125 13.4824 14.3932 13.0625 13.875 13.0625C13.3568 13.0625 12.9368 13.4818 12.9368 14ZM16.6868 14C16.6868 14.5182 17.1061 14.9382 17.6243 14.9382C18.1426 14.9382 18.5625 14.5189 18.5625 14.0007C18.5625 13.4824 18.1432 13.0625 17.625 13.0625C17.1068 13.0625 16.6868 13.4818 16.6868 14ZM7 6.8125C6.48177 6.8125 6.06185 7.23177 6.06185 7.75C6.06185 8.26823 6.48112 8.68815 6.99935 8.68815C7.51758 8.68815 7.9375 8.26888 7.9375 7.75065C7.9375 7.23242 7.51823 6.8125 7 6.8125ZM12 6.8125C11.4818 6.8125 11.0618 7.23177 11.0618 7.75C11.0618 8.26823 11.4811 8.68815 11.9993 8.68815C12.5176 8.68815 12.9375 8.26888 12.9375 7.75065C12.9375 7.23242 12.5182 6.8125 12 6.8125Z" fill="#222222"/>
</svg>
