<svg width="24" height="24" viewBox="0 0 24 24" fill="none" xmlns="http://www.w3.org/2000/svg">
<path fill-rule="evenodd" clip-rule="evenodd" d="M16.6701 9.00036C17.1651 9.56733 16.9759 10.5813 16.6701 11.3642L16.8576 11.4624C18.2108 12.1522 19.7298 12.5885 19.4648 14.7175C18.953 18.8252 10.2532 21.5847 4.81904 18.5657C3.32908 17.7376 1.78666 16.5261 2.02439 14.1126C2.22919 12.035 3.64883 10.4262 5.04337 9.05505C6.37318 7.74701 7.77497 6.72357 9.68234 6.25203C11.7521 5.73975 12.3643 7.43674 11.8068 9.1103C13.0055 9.03106 15.5468 7.7152 16.6701 9.00036ZM8.78781 18.7309C11.3615 18.9011 13.9374 18.0077 15.1606 16.6416C15.6081 16.1438 16.0574 15.3838 16.0546 14.4987C16.0468 10.8358 9.69239 10.0188 6.21637 12.0244C2.26044 14.3079 3.93064 18.4111 8.78781 18.7309ZM12.7019 14.2236C13.8922 17.7638 7.68736 19.4089 6.55231 16.3676C5.79282 14.3335 7.61649 12.7147 9.51493 12.5194C11.1355 12.3519 12.3442 13.165 12.7019 14.2236ZM8.84417 16.6974C9.88714 16.4535 10.0272 14.521 8.45243 14.8838C7.12988 15.1868 7.38546 17.0383 8.84417 16.6974ZM10.6321 14.6086C10.5713 14.2147 9.84473 14.2727 9.84975 14.8285C10.102 15.2588 10.6835 14.949 10.6321 14.6086ZM21.1422 11.2002C19.9408 11.3062 20.5674 10.0043 20.5831 9.22079C20.6271 6.95013 18.6567 5.37256 16.7259 5.37256C16.179 5.37256 14.9084 5.73752 15.1042 4.60247C15.1924 4.10302 15.6232 4.10916 16.0546 4.0528C19.3018 3.62757 21.7521 5.82401 21.9809 8.72581C22.0663 9.8218 21.8783 11.1354 21.1422 11.2002ZM18.0674 9.05561C18.0367 8.61476 17.6645 8.10583 17.3409 7.95627C16.7047 7.66275 15.7198 8.16945 15.7198 7.29667C15.7198 6.64823 16.2912 6.71576 16.6148 6.69176C19.5775 6.46966 19.7605 10.2459 18.6266 10.3201C17.8124 10.3737 18.1165 9.77157 18.0674 9.05561Z" fill="#222222"/>
</svg>
