<svg width="24" height="24" viewBox="0 0 24 24" fill="none" xmlns="http://www.w3.org/2000/svg">
<path d="M10.2856 12.0285C10.647 12.7674 11.246 13.3636 11.9866 13.7217C12.0407 13.7474 12.1007 13.7585 12.1605 13.754C12.2202 13.7495 12.2778 13.7294 12.3275 13.6959L13.418 12.9688C13.4662 12.9366 13.5217 12.917 13.5794 12.9117C13.6371 12.9064 13.6952 12.9156 13.7485 12.9384L15.7885 13.8127C15.8578 13.8421 15.9156 13.8933 15.9533 13.9585C15.991 14.0236 16.0065 14.0993 15.9975 14.1741C15.933 14.6786 15.6868 15.1423 15.3051 15.4784C14.9233 15.8145 14.4321 16 13.9234 16C12.3525 16 10.8458 15.3759 9.73494 14.2651C8.62408 13.1542 8 11.6475 8 10.0766C8.00003 9.56791 8.18545 9.07671 8.52156 8.69494C8.85767 8.31317 9.32141 8.06699 9.82595 8.00252C9.90069 7.99347 9.97635 8.00896 10.0415 8.04666C10.1067 8.08435 10.1579 8.1422 10.1873 8.2115L11.0623 10.2533C11.085 10.3061 11.0942 10.3637 11.0892 10.4209C11.0842 10.4781 11.0651 10.5332 11.0336 10.5813L10.309 11.6885C10.2761 11.7383 10.2566 11.7958 10.2525 11.8554C10.2483 11.915 10.2598 11.9746 10.2856 12.0285Z" fill="#222222"/>
<path d="M5.1564 16.1453L5.63531 16.289L5.58381 15.8859L5.1564 16.1453ZM4 20L3.52109 19.8563L4.14367 20.4789L4 20ZM7.85466 18.8436L8.11411 18.4162L7.71098 18.3647L7.85466 18.8436ZM4.5 12C4.5 7.85786 7.85786 4.5 12 4.5V3.5C7.30558 3.5 3.5 7.30558 3.5 12H4.5ZM5.58381 15.8859C4.89609 14.753 4.5 13.4235 4.5 12H3.5C3.5 13.6116 3.94899 15.1199 4.72898 16.4048L5.58381 15.8859ZM4.47891 20.1437L5.63531 16.289L4.67748 16.0017L3.52109 19.8563L4.47891 20.1437ZM7.71098 18.3647L3.85633 19.5211L4.14367 20.4789L7.99833 19.3225L7.71098 18.3647ZM12 19.5C10.5765 19.5 9.24704 19.1039 8.11411 18.4162L7.5952 19.271C8.88014 20.051 10.3884 20.5 12 20.5V19.5ZM19.5 12C19.5 16.1421 16.1421 19.5 12 19.5V20.5C16.6944 20.5 20.5 16.6944 20.5 12H19.5ZM12 4.5C16.1421 4.5 19.5 7.85786 19.5 12H20.5C20.5 7.30558 16.6944 3.5 12 3.5V4.5Z" fill="#222222"/>
</svg>
