<svg width="24" height="24" viewBox="0 0 24 24" fill="none" xmlns="http://www.w3.org/2000/svg">
<path fill-rule="evenodd" clip-rule="evenodd" d="M10.1415 14.5818V8.98883L15.0049 11.7947L10.1415 14.5818ZM20.82 8.0205C20.82 8.0205 20.6445 6.6485 20.1045 6.04417C19.4194 5.25083 18.6532 5.24733 18.3011 5.20183C15.7822 5 12.0034 5 12.0034 5H11.9955C11.9955 5 8.21775 5 5.69888 5.20183C5.34675 5.2485 4.5795 5.25083 3.89438 6.04417C3.3555 6.6485 3.18 8.0205 3.18 8.0205C3.18 8.0205 3 9.6305 3 11.2405V12.7513C3 14.3625 3.18 15.9737 3.18 15.9737C3.18 15.9737 3.3555 17.3445 3.89438 17.9488C4.58063 18.7422 5.4795 18.7165 5.88 18.8005C7.32 18.951 12 19 12 19C12 19 15.7822 18.9942 18.3011 18.7923C18.6532 18.7457 19.4194 18.7422 20.1045 17.9488C20.6445 17.3445 20.82 15.9737 20.82 15.9737C20.82 15.9737 21 14.3637 21 12.7513V11.2417C21 9.63167 20.82 8.0205 20.82 8.0205Z" fill="#222222"/>
</svg>
