<svg width="24" height="24" viewBox="0 0 24 24" fill="none" xmlns="http://www.w3.org/2000/svg">
<path d="M12.4331 18.3319L18.2954 12.5181C19.7358 11.0897 19.9483 8.73956 18.5852 7.23833C18.2437 6.86121 17.8284 6.55703 17.3645 6.34436C16.9006 6.13168 16.3979 6.01497 15.887 6.00135C15.3761 5.98772 14.8678 6.07747 14.3931 6.26511C13.9183 6.45275 13.4871 6.73435 13.1257 7.09273L12.0239 8.18545L11.0725 7.24199C9.63212 5.8135 7.26242 5.60275 5.74866 6.95459C5.36839 7.2932 5.06168 7.7051 4.84723 8.16516C4.63278 8.62521 4.5151 9.12377 4.50136 9.63042C4.48762 10.1371 4.57812 10.6412 4.76732 11.112C4.95653 11.5828 5.24048 12.0105 5.60185 12.3689L11.6146 18.3319C11.7232 18.4395 11.8704 18.5 12.0239 18.5C12.1774 18.5 12.3246 18.4395 12.4331 18.3319V18.3319Z" stroke="#222222" stroke-linecap="round"/>
</svg>
