<svg width="24" height="24" viewBox="0 0 24 24" fill="none" xmlns="http://www.w3.org/2000/svg">
<path d="M11.9992 3C6.9304 3 3 6.71442 3 11.7292C3 14.3525 4.0754 16.6203 5.82575 18.1862C5.97199 18.3166 6.06198 18.5011 6.06648 18.6991L6.11597 20.301C6.13172 20.8117 6.65817 21.1446 7.12613 20.9377L8.91247 20.1502C9.06321 20.0827 9.2342 20.0715 9.39393 20.1142C10.2151 20.3392 11.088 20.4607 11.9992 20.4607C17.068 20.4607 20.9984 16.7463 20.9984 11.7315C20.9984 6.71667 17.068 3 11.9992 3Z" fill="#222222"/>
<path d="M6.59511 14.2829L9.23861 10.0892C9.65932 9.42105 10.5592 9.25681 11.1914 9.72927L13.295 11.3064C13.4885 11.4504 13.7539 11.4504 13.9452 11.3041L16.7844 9.14882C17.1624 8.86085 17.6573 9.31531 17.4054 9.71802L14.7596 13.9094C14.3389 14.5776 13.439 14.7418 12.8068 14.2694L10.7032 12.6923C10.5097 12.5483 10.2443 12.5483 10.053 12.6945L7.2138 14.8498C6.83583 15.1378 6.34088 14.6856 6.59511 14.2829Z" fill="white"/>
</svg>
