<svg width="24" height="24" viewBox="0 0 24 24" fill="none" xmlns="http://www.w3.org/2000/svg">
<path d="M15.5 19L17.25 17.25L19 15.5M15.5 19H5V5H19V15.5M15.5 19V15.5H19" stroke="#222222" stroke-linecap="round" stroke-linejoin="round"/>
<path fill-rule="evenodd" clip-rule="evenodd" d="M15.051 7.00301C15.7061 7.00033 16.4919 6.99712 16.9533 7.00478V7.82641C16.6801 7.81601 16.0673 7.82033 15.6014 7.82362C15.4172 7.82492 15.2559 7.82606 15.1478 7.82606V8.79562C15.1944 8.79542 15.2952 8.79566 15.4191 8.79595C15.7275 8.79666 16.179 8.79771 16.295 8.79329V9.61756C16.1706 9.61962 15.6689 9.61867 15.361 9.61808C15.2621 9.61789 15.1831 9.61774 15.1431 9.61774V11H14.3204V7.00526C14.5168 7.00519 14.7721 7.00415 15.051 7.00301ZM8.36149 7.00519H7.06677V10.9999H7.88955V9.61766H8.36149C8.70802 9.61766 9.04035 9.48001 9.28538 9.23498C9.5304 8.98995 9.66806 8.65762 9.66806 8.31109C9.66806 7.96457 9.5304 7.63224 9.28538 7.38721C9.04035 7.14218 8.70802 7.00453 8.36149 7.00453V7.00519ZM8.36149 8.79554H7.89416V7.82599H8.36478C8.49309 7.82599 8.61615 7.87696 8.70688 7.96769C8.7976 8.05841 8.84858 8.18147 8.84858 8.30978C8.84858 8.43809 8.7976 8.56114 8.70688 8.65187C8.61615 8.7426 8.49309 8.79357 8.36478 8.79357L8.36149 8.79554ZM11.7869 7.02312H10.5027V7.02838V7.57668L10.5099 10.925H10.9213C10.9213 10.925 11.569 10.925 11.8185 10.9185C12.054 10.9008 12.2836 10.8361 12.4937 10.728C12.7037 10.6199 12.8899 10.4707 13.0412 10.2893C13.1924 10.1079 13.3057 9.89792 13.3743 9.67187C13.4429 9.44583 13.4653 9.20831 13.4403 8.97342C13.4403 7.80706 12.7762 7.02312 11.7869 7.02312ZM11.804 10.0944C11.7429 10.0944 11.6578 10.0954 11.5646 10.0966C11.4931 10.0975 11.4169 10.0984 11.3432 10.099L11.3307 7.84589H11.7915C12.5629 7.84589 12.6222 8.70882 12.6222 8.97342C12.6175 9.52436 12.3668 10.0845 11.804 10.0944Z" fill="#222222"/>
</svg>
