<svg width="24" height="24" viewBox="0 0 24 24" fill="none" xmlns="http://www.w3.org/2000/svg">
<path fill-rule="evenodd" clip-rule="evenodd" d="M20.7778 6.71638C20.1118 7.01133 19.4055 7.20495 18.6822 7.29082C19.4443 6.8353 20.0145 6.11811 20.2867 5.27304C19.5704 5.69754 18.7869 5.99666 17.97 6.15749C17.4213 5.56999 16.6938 5.18028 15.9006 5.04898C15.1075 4.91767 14.2932 5.05212 13.5844 5.43143C12.8756 5.81074 12.312 6.41363 11.9813 7.14635C11.6505 7.87908 11.5712 8.70056 11.7556 9.48304C10.3054 9.41051 8.88668 9.03383 7.59153 8.37745C6.29638 7.72107 5.15374 6.79966 4.23778 5.67304C3.76997 6.47562 3.62629 7.42653 3.83611 8.33149C4.04593 9.23644 4.59341 10.0271 5.36667 10.5419C4.78745 10.5242 4.22091 10.368 3.71444 10.0864V10.1319C3.71466 10.974 4.00608 11.79 4.53929 12.4417C5.0725 13.0934 5.81469 13.5406 6.64 13.7075C6.103 13.8533 5.5398 13.8746 4.99333 13.7697C5.22623 14.4944 5.67981 15.1282 6.29062 15.5824C6.90144 16.0366 7.63894 16.2886 8.4 16.303C7.10779 17.3166 5.51226 17.866 3.87 17.863C3.57556 17.863 3.28556 17.8464 3 17.813C4.66791 18.8842 6.60885 19.4528 8.59111 19.4508C15.3 19.4508 18.9689 13.8942 18.9689 9.07527C18.9688 8.91779 18.9651 8.76035 18.9578 8.60304C19.6718 8.08786 20.2882 7.44932 20.7778 6.71749" fill="#222222"/>
</svg>
