<svg width="16" height="16" viewBox="0 0 16 16" fill="none" xmlns="http://www.w3.org/2000/svg">
<path fill-rule="evenodd" clip-rule="evenodd" d="M2.27538 11.2433C1.69446 10.2414 1.38886 9.1046 1.38926 7.94023L1.38915 7.94002C1.39068 4.29712 4.36866 1.33337 8.02808 1.33337C9.80393 1.33414 11.4706 2.02225 12.7241 3.27104C13.9774 4.51982 14.6674 6.17982 14.6668 7.94536C14.6653 11.5881 11.6867 14.5524 8.02808 14.5524H8.02525C6.9142 14.5519 5.82253 14.2745 4.85284 13.7481L1.3335 14.6667L2.27538 11.2433ZM3.35358 10.8629L3.48495 11.0707L2.92724 13.097L5.01577 12.5519L5.21735 12.6709C6.06432 13.1712 7.03551 13.4359 8.02579 13.4364H8.02795C11.0693 13.4364 13.5445 10.9728 13.5459 7.94483C13.5463 6.47753 12.973 5.09773 11.9311 4.05978C10.8892 3.02191 9.50395 2.44987 8.03003 2.4493C4.98641 2.4493 2.5112 4.91277 2.50999 7.94052C2.50959 8.97803 2.80115 9.98856 3.35358 10.8629ZM5.99564 4.89246C6.11384 4.8973 6.24461 4.90281 6.36889 5.17783L6.36879 5.17778C6.45361 5.36556 6.59625 5.7154 6.71006 5.99453C6.79416 6.20081 6.86252 6.36847 6.88017 6.40357C6.92162 6.48617 6.9493 6.58261 6.89394 6.69283C6.88563 6.70938 6.87796 6.72499 6.87062 6.7399C6.82911 6.82428 6.79861 6.88629 6.72827 6.96825C6.70057 7.00043 6.67193 7.03511 6.64329 7.06979C6.58615 7.13897 6.52901 7.20815 6.47937 7.25744C6.3962 7.33978 6.30979 7.42923 6.40652 7.59436C6.50333 7.7597 6.83623 8.30025 7.32937 8.73796C7.85905 9.20809 8.31923 9.40699 8.55296 9.50801C8.5989 9.52787 8.63609 9.54394 8.66334 9.55755C8.82921 9.64015 8.92602 9.62637 9.02276 9.51602C9.11957 9.40586 9.43726 9.03401 9.54783 8.86888C9.65848 8.70355 9.76907 8.73104 9.92116 8.78608C10.0732 8.8412 10.8887 9.24074 11.0546 9.32333C11.0869 9.33939 11.1171 9.35388 11.1451 9.36733C11.2609 9.42298 11.3392 9.46058 11.3726 9.51601C11.414 9.58504 11.414 9.91555 11.2758 10.3011C11.1376 10.6867 10.4603 11.0586 10.1562 11.0861C10.1269 11.0887 10.0979 11.0921 10.068 11.0957C9.78688 11.1286 9.43215 11.1702 8.16561 10.673C6.60768 10.0613 5.5803 8.54559 5.36782 8.23211C5.35036 8.20636 5.3384 8.18871 5.33211 8.18036L5.33014 8.17775C5.24034 8.05822 4.6548 7.27883 4.6548 6.47243C4.6548 5.7119 5.0303 5.31324 5.20306 5.12983C5.21486 5.11731 5.22571 5.10579 5.23543 5.09522C5.38739 4.92997 5.5671 4.88864 5.67774 4.88864C5.68413 4.88864 5.69052 4.88863 5.6969 4.88863C5.801 4.88862 5.90449 4.8886 5.99564 4.89246Z" fill="#222222"/>
</svg>
